<svg width="19" height="19" viewBox="0 0 19 19" fill="none" xmlns="http://www.w3.org/2000/svg">
<path d="M6.03906 7.48281V9.02656C6.03906 9.08594 6.09978 9.20469 6.22121 9.20469H7.79978C7.86049 9.20469 7.98192 9.14531 7.98192 9.02656V7.48281C7.98192 7.42344 7.92121 7.30469 7.79978 7.30469H6.22121C6.09978 7.36406 6.03906 7.42344 6.03906 7.48281Z" fill="#5C5C5E"/>
<path d="M7.9212 12.7062V11.1625C7.9212 11.1031 7.86049 10.9844 7.73906 10.9844H6.22121C6.16049 10.9844 6.03906 11.0437 6.03906 11.1625V12.7062C6.03906 12.7656 6.09978 12.8844 6.22121 12.8844H7.79978C7.86049 12.8844 7.9212 12.825 7.9212 12.7062Z" fill="#5C5C5E"/>
<path d="M7.79978 5.52031C7.86049 5.52031 7.98192 5.46094 7.98192 5.34219V3.85781C7.98192 3.79844 7.92121 3.67969 7.79978 3.67969H6.22121C6.16049 3.67969 6.03906 3.73906 6.03906 3.85781V5.34219C6.03906 5.40156 6.09978 5.52031 6.22121 5.52031H7.79978Z" fill="#5C5C5E"/>
<path d="M11.2017 12.8844H12.7802C12.841 12.8844 12.9624 12.825 12.9624 12.7062V11.1625C12.9624 11.1031 12.9017 10.9844 12.7802 10.9844H11.2017C11.0802 10.9844 11.0195 11.0437 11.0195 11.1625V12.7062C11.0802 12.825 11.141 12.8844 11.2017 12.8844Z" fill="#5C5C5E"/>
<path d="M1 17.9312V19H18V17.9312C18 17.8719 17.9393 17.7531 17.8179 17.7531H16.7857V0.59375C16.7857 0.2375 16.4821 0 16.1179 0H2.88214C2.51786 0 2.21429 0.296875 2.21429 0.59375V17.7531H1.18214C1.06071 17.7531 1 17.8125 1 17.9312ZM3.55 1.24687L15.5107 1.30625V17.7531H10.4714V14.8438C10.4714 14.7844 10.4107 14.6656 10.2893 14.6656H8.71071C8.65 14.6656 8.52857 14.725 8.52857 14.8438V17.6938H3.48929L3.55 1.24687Z" fill="#5C5C5E"/>
<path d="M12.7802 3.67969H11.2017C11.0802 3.67969 11.0195 3.73906 11.0195 3.85781V5.34219C11.0195 5.46094 11.0802 5.52031 11.2017 5.52031H12.7802C12.841 5.52031 12.9624 5.46094 12.9624 5.34219V3.85781C12.9624 3.73906 12.9017 3.67969 12.7802 3.67969Z" fill="#5C5C5E"/>
<path d="M12.9624 7.48281C12.9624 7.42344 12.9017 7.30469 12.7802 7.30469H11.2017C11.0802 7.30469 11.0195 7.36406 11.0195 7.48281V9.02656C11.0195 9.14531 11.0802 9.20469 11.2017 9.20469H12.7802C12.841 9.20469 12.9624 9.14531 12.9624 9.02656V7.48281Z" fill="#5C5C5E"/>
</svg>
