<svg width="12" height="13" viewBox="0 0 12 13" fill="none" xmlns="http://www.w3.org/2000/svg">
<path d="M10.875 5H9.75C9.75 4.90054 9.71049 4.80516 9.64017 4.73484C9.56984 4.66451 9.47446 4.625 9.375 4.625H6.375C6.27554 4.625 6.18016 4.66451 6.10983 4.73484C6.03951 4.80516 6 4.90054 6 5H3V2.9375C3 2.78832 3.05926 2.64524 3.16475 2.53975C3.27024 2.43426 3.41332 2.375 3.5625 2.375C3.71168 2.375 3.85476 2.43426 3.96025 2.53975C4.06574 2.64524 4.125 2.78832 4.125 2.9375C4.125 3.03696 4.16451 3.13234 4.23484 3.20266C4.30516 3.27299 4.40054 3.3125 4.5 3.3125C4.59946 3.3125 4.69484 3.27299 4.76516 3.20266C4.83549 3.13234 4.875 3.03696 4.875 2.9375C4.875 2.5894 4.73672 2.25556 4.49058 2.00942C4.24444 1.76328 3.9106 1.625 3.5625 1.625C3.2144 1.625 2.88056 1.76328 2.63442 2.00942C2.38828 2.25556 2.25 2.5894 2.25 2.9375V5H1.125C0.926088 5 0.735322 5.07902 0.59467 5.21967C0.454018 5.36032 0.375 5.55109 0.375 5.75V7.25C0.375 7.94619 0.651562 8.61387 1.14384 9.10616C1.63613 9.59844 2.30381 9.875 3 9.875V10.625C3 10.7245 3.03951 10.8198 3.10984 10.8902C3.18016 10.9605 3.27554 11 3.375 11C3.47446 11 3.56984 10.9605 3.64016 10.8902C3.71049 10.8198 3.75 10.7245 3.75 10.625V9.875H8.25V10.625C8.25 10.7245 8.28951 10.8198 8.35983 10.8902C8.43016 10.9605 8.52554 11 8.625 11C8.72446 11 8.81984 10.9605 8.89017 10.8902C8.96049 10.8198 9 10.7245 9 10.625V9.875C9.69619 9.875 10.3639 9.59844 10.8562 9.10616C11.3484 8.61387 11.625 7.94619 11.625 7.25V5.75C11.625 5.55109 11.546 5.36032 11.4053 5.21967C11.2647 5.07902 11.0739 5 10.875 5ZM9 5.375V6.875H6.75V5.375H9ZM10.875 7.25C10.875 7.49623 10.8265 7.74005 10.7323 7.96753C10.638 8.19502 10.4999 8.40172 10.3258 8.57583C10.1517 8.74994 9.94502 8.88805 9.71753 8.98227C9.49005 9.0765 9.24623 9.125 9 9.125H3C2.50272 9.125 2.02581 8.92746 1.67417 8.57583C1.32254 8.22419 1.125 7.74728 1.125 7.25V5.75H6V7.25C6 7.34946 6.03951 7.44484 6.10983 7.51517C6.18016 7.58549 6.27554 7.625 6.375 7.625H9.375C9.47446 7.625 9.56984 7.58549 9.64017 7.51517C9.71049 7.44484 9.75 7.34946 9.75 7.25V5.75H10.875V7.25Z" fill="#848487"/>
</svg>
