<svg width="12" height="13" viewBox="0 0 12 13" fill="none" xmlns="http://www.w3.org/2000/svg">
<path d="M3.375 2.5H8.625C8.97514 2.49998 9.3121 2.63355 9.56715 2.87345C9.82219 3.11335 9.97611 3.44151 9.9975 3.791L10 3.875V5.552C10.2725 5.62937 10.5146 5.78898 10.693 6.00903C10.8714 6.22908 10.9776 6.49885 10.997 6.7815L11 6.875V10.625C11 10.72 10.9639 10.8115 10.899 10.8809C10.8341 10.9503 10.7454 10.9925 10.6506 10.999C10.5558 11.0055 10.4621 10.9757 10.3884 10.9158C10.3146 10.8558 10.2665 10.7701 10.2535 10.676L10.25 10.625V9.5H1.75V10.625C1.75 10.7156 1.71718 10.8032 1.65762 10.8715C1.59805 10.9398 1.51578 10.9842 1.426 10.9965L1.375 11C1.28438 11 1.19683 10.9672 1.12853 10.9076C1.06024 10.8481 1.01582 10.7658 1.0035 10.676L1 10.625V6.875C1 6.2455 1.423 5.715 2 5.5515V3.875C1.99998 3.52486 2.13355 3.1879 2.37345 2.93285C2.61335 2.67781 2.94151 2.52389 3.291 2.5025L3.375 2.5ZM9.625 6.25H2.375C2.22027 6.24993 2.07102 6.30726 1.95612 6.41089C1.84122 6.51452 1.76884 6.65708 1.753 6.811L1.75 6.875V8.75H10.25V6.875C10.2499 6.72036 10.1926 6.57122 10.0889 6.45643C9.98533 6.34164 9.84283 6.26934 9.689 6.2535L9.625 6.25ZM8.625 3.25H3.375C3.22027 3.24993 3.07102 3.30726 2.95612 3.41089C2.84122 3.51452 2.76884 3.65708 2.753 3.811L2.75 3.875V5.5H3.5C3.5 5.36739 3.55268 5.24021 3.64645 5.14645C3.74021 5.05268 3.86739 5 4 5H5C5.12247 5.00002 5.24067 5.04498 5.33219 5.12636C5.4237 5.20774 5.48217 5.31987 5.4965 5.4415L5.5 5.5H6.5C6.5 5.36739 6.55268 5.24021 6.64645 5.14645C6.74021 5.05268 6.86739 5 7 5H8C8.12247 5.00002 8.24067 5.04498 8.33219 5.12636C8.4237 5.20774 8.48217 5.31987 8.4965 5.4415L8.5 5.5H9.25V3.875C9.25007 3.72027 9.19274 3.57102 9.08911 3.45612C8.98548 3.34122 8.84292 3.26884 8.689 3.253L8.625 3.25Z" fill="#848487"/>
</svg>
