<svg width="30" height="30" viewBox="0 0 30 30" fill="none" xmlns="http://www.w3.org/2000/svg">
<circle cx="15" cy="15" r="15" fill="#DFE1E8"/>
<path d="M15.5516 15C17.2246 15 18.6109 13.6641 18.6109 12C18.6109 10.3594 17.2246 9 15.5516 9C13.8546 9 12.4923 10.3594 12.4923 12C12.4923 13.6641 13.8546 15 15.5516 15ZM17.6788 15.75H17.2725C16.7466 16.0078 16.173 16.125 15.5516 16.125C14.9302 16.125 14.3326 16.0078 13.8068 15.75H13.4005C11.6318 15.75 10.1978 17.1797 10.1978 18.9141V19.875C10.1978 20.5078 10.6997 21 11.345 21H19.7582C20.3796 21 20.9054 20.5078 20.9054 19.875V18.9141C20.9054 17.1797 19.4474 15.75 17.6788 15.75Z" fill="#09090E"/>
</svg>
